<svg id="Layer_1" data-name="Layer 1" xmlns="http://www.w3.org/2000/svg" viewBox="0 0 512 512"><title>github</title><path d="M256,0C114.62,0,0,114.62,0,256S114.62,512,256,512,512,397.38,512,256,397.38,0,256,0ZM393.5,245.5c-3,23.9-14.2,43.7-33.7,58.5-16.1,12.3-34.6,18.9-54.4,22.3-2.9.5-5.7,1.1-8.9,1.7,8.4,12.1,11.3,25.1,11.5,38.8,0.3,25.7.1,51.3,0.1,77v21.86a217.34,217.34,0,0,1-99.9,1v-64c-5.8.6-11.3,1.5-16.7,1.8-29.3,1.7-52.7-8.6-67.1-34.9-9.9-18-18.5-36.6-36.2-48.6-0.9-.6-2.1-2.6-1.7-3.2a5.18,5.18,0,0,1,3.4-2.4c4.6-.1,9.4-0.4,13.9.5,13.4,2.7,22.3,11.4,29.9,22.4,5.1,7.4,10.8,15.1,17.9,20.5,15.8,12,34,13.3,52.8,7.8,2.8-.8,4.3-2.1,4.7-5.4,1-11.7,3.3-23.1,11.2-33.2a23.58,23.58,0,0,0-3.1-.7c-14.8-2.5-29.2-6.1-42.9-12.8-30.1-14.9-48.1-38.7-51.2-72.1-1.5-16.3-.5-33,0.8-49.4,1.5-18.3,6.7-35.6,20.6-49.1,1.1-1.1,1.2-4.3.6-6.2-6.2-17.3-5.6-34.6-.2-52,2.1-6.6,2.4-6.7,9.2-4.4,11.9,3.9,21.6,11,29.8,20.2,4.4,4.9,8.5,10.1,11.9,14.2,7-2.6,13.3-5.7,20-7.2,21.7-5,43.7-4.2,65.7-2.9,13.7,0.8,27.2,2.7,38.6,10.9,5-5.9,9.7-11.9,15-17.4,8.2-8.5,17.8-15,29.3-18.3,3.7-1.1,6.2-.6,7.6,3.7,5.7,17.8,6.7,35.7-.2,53.3-1.4,3.5-.6,5.6,1.7,7.8,9,8.6,13.9,19.4,16.6,31.3A197.82,197.82,0,0,1,393.5,245.5Z"/></svg>