<svg id="Layer_1" data-name="Layer 1" xmlns="http://www.w3.org/2000/svg" viewBox="0 0 512 512"><title>linkedin</title><path d="M256,0C114.62,0,0,114.62,0,256S114.62,512,256,512,512,397.38,512,256,397.38,0,256,0ZM176.67,391.92H166.2c-13.53,0-27-.08-40.51.08-3.3.08-4.64-.71-4.64-4.33q0.12-85.66.08-171.31c0-2.44.16-4.25,3.46-4.25q24.54,0.12,49.16.08a23.06,23.06,0,0,1,2.91.39V391.92Zm-29-215.36c-16.6,0-28.24-11.8-28.16-28.55,0.08-16.36,12-28.08,28.79-28,17.15,0.08,28.32,11.64,28.47,28.4C176.9,164.52,165.42,176.71,147.64,176.55ZM392.5,387.9c0,1.18-.08,2.36-0.16,3.85-1.42.08-2.67,0.16-3.93,0.16-15.89,0-31.7-.08-47.59.08-3.62.08-4.4-1.18-4.4-4.56,0.08-31.86.16-63.71,0-95.57a76.86,76.86,0,0,0-2.12-17.46c-2.36-9.83-9-16.44-18.41-19.82-9.67-3.46-19.66-4.17-29,.47-13.76,6.92-19.59,18.64-19.51,33.82,0.16,32.09.08,64.26,0,96.35,0,8,.08,6.45-6.53,6.53-14.79.08-29.65,0-44.44,0a39.83,39.83,0,0,1-4.56.16V211.4H267V234c3.22-3.85,5.82-7.08,8.57-10.23,10.23-11.72,23.28-17.86,38.54-19.27,15.5-1.42,30.52.55,44.28,8.57,11.09,6.37,19.11,15.5,24.7,26.9,6.76,13.76,9.28,28.55,9.36,43.73C392.58,318.45,392.5,353.14,392.5,387.9Z"/></svg>