<?xml version="1.0" encoding="utf-8"?>
<!-- Generator: Adobe Illustrator 19.2.1, SVG Export Plug-In . SVG Version: 6.00 Build 0)  -->
<svg version="1.1" id="Layer_1" xmlns="http://www.w3.org/2000/svg" xmlns:xlink="http://www.w3.org/1999/xlink" x="0px" y="0px"
	 viewBox="0 0 512 512" style="enable-background:new 0 0 512 512;" xml:space="preserve">
<title>github</title>
<path d="M256,0C114.6,0,0,114.6,0,256s114.6,256,256,256s256-114.6,256-256S397.4,0,256,0z M390.6,186.8c0.1,3,0.2,5.9,0.2,8.9
	c0,91.2-69.4,196.4-196.4,196.4c-39,0-75.3-11.4-105.8-31c5.4,0.6,10.9,1,16.5,1c32.3,0,62.1-11,85.7-29.5
	c-30.2-0.6-55.7-20.5-64.5-47.9c4.2,0.8,8.5,1.2,13,1.2c6.3,0,12.4-0.8,18.2-2.4c-31.6-6.3-55.4-34.2-55.4-67.7c0-0.3,0-0.6,0-0.9
	c9.3,5.2,19.9,8.3,31.3,8.6c-18.5-12.4-30.7-33.5-30.7-57.4c0-12.6,3.4-24.5,9.3-34.7c34,41.8,84.9,69.2,142.3,72.1
	c-1.2-5.1-1.8-10.3-1.8-15.7c0-38.1,30.9-69,69-69c19.9,0,37.8,8.4,50.4,21.8c15.7-3.1,30.5-8.8,43.8-16.7
	c-5.2,16.1-16.1,29.6-30.3,38.2c14-1.7,27.3-5.4,39.6-10.9C415.7,164.9,404,177.1,390.6,186.8z"/>
</svg>
